<svg width="100%" height="550" viewBox="0 0 100% 550" fill="none" xmlns="http://www.w3.org/2000/svg">
<rect width="2920" height="92" transform="matrix(-0.999266 -0.15908 -0.15908 0.987266 2563.99 472.18)" fill="#23A1B4"/>
<path d="M2527.6 466.431L2439.4 452.105L2460.31 554.594L2548.4 568.91L2527.6 466.431Z" fill="#031019"/>
<path d="M2000.4 381.483L1912.2 367.156L1933.11 469.645L2021.2 483.961L2000.4 381.483Z" fill="#031019"/>
<path d="M1475.17 296.852L1386.97 282.526L1407.88 385.015L1495.98 399.331L1475.17 296.852Z" fill="#031019"/>
<path d="M949.947 212.222L861.748 197.895L882.657 300.384L970.752 314.701L949.947 212.222Z" fill="#031019"/>
<path d="M422.747 127.273L334.549 112.947L355.457 215.435L443.552 229.752L422.747 127.273Z" fill="#031019"/>
<path d="M2351.86 438.115L2263.67 423.789L2284.57 526.277L2372.67 540.594L2351.86 438.115Z" fill="#031019"/>
<path d="M1824.66 353.167L1736.47 338.84L1757.37 441.329L1845.47 455.645L1824.66 353.167Z" fill="#031019"/>
<path d="M1299.44 268.536L1211.24 254.21L1232.15 356.698L1320.24 371.015L1299.44 268.536Z" fill="#031019"/>
<path d="M774.214 183.906L686.015 169.579L706.924 272.068L795.019 286.384L774.214 183.906Z" fill="#031019"/>
<path d="M247.014 98.9571L158.815 84.6304L179.724 187.119L267.819 201.436L247.014 98.9571Z" fill="#031019"/>
<path d="M-102.478 42.6428L-190.677 28.3162L-169.768 130.805L-81.6733 145.121L-102.478 42.6428Z" fill="#031019"/>
<path d="M2176.13 409.799L2087.93 395.472L2108.84 497.961L2196.94 512.278L2176.13 409.799Z" fill="#031019"/>
<path d="M1648.93 324.85L1560.73 310.524L1581.64 413.013L1669.74 427.329L1648.93 324.85Z" fill="#031019"/>
<path d="M1123.71 240.22L1035.51 225.893L1056.42 328.382L1144.51 342.699L1123.71 240.22Z" fill="#031019"/>
<path d="M598.481 155.59L510.282 141.263L531.191 243.752L619.285 258.068L598.481 155.59Z" fill="#031019"/>
<path d="M71.2805 70.6409L-16.9181 56.3142L3.99059 158.803L92.0854 173.12L71.2805 70.6409Z" fill="#031019"/>
<path d="M-278.212 14.3266L-366.41 -3.30388e-05L-345.501 102.489L-257.407 116.805L-278.212 14.3266Z" fill="#031019"/>
</svg>
