<svg width="100%" height="789" viewBox="0 0 100% 789" fill="none" xmlns="http://www.w3.org/2000/svg">
<rect x="-697.392" y="0.863525" width="4196" height="103" transform="rotate(12.4471 -697.392 0.863525)" fill="#C80C59"/>
<path d="M-658.752 9.48205L-564.948 29.9764L-626.298 124.155L-719.995 103.692L-658.752 9.48205Z" fill="#031019"/>
<path d="M-98.3163 132.673L-4.51195 153.167L-65.8625 247.346L-159.559 226.882L-98.3163 132.673Z" fill="#031019"/>
<path d="M460.02 255.402L553.825 275.896L492.474 370.075L398.778 349.611L460.02 255.402Z" fill="#031019"/>
<path d="M1018.36 378.131L1112.16 398.625L1050.81 492.804L957.114 472.34L1018.36 378.131Z" fill="#031019"/>
<path d="M1578.79 501.321L1672.6 521.816L1611.25 615.994L1517.55 595.531L1578.79 501.321Z" fill="#031019"/>
<path d="M-471.94 50.5456L-378.136 71.0399L-439.486 165.219L-533.183 144.755L-471.94 50.5456Z" fill="#031019"/>
<path d="M88.4956 173.736L182.3 194.23L120.949 288.409L27.2528 267.946L88.4956 173.736Z" fill="#031019"/>
<path d="M646.832 296.465L740.636 316.96L679.286 411.138L585.589 390.675L646.832 296.465Z" fill="#031019"/>
<path d="M1205.17 419.194L1298.97 439.689L1237.62 533.867L1143.93 513.404L1205.17 419.194Z" fill="#031019"/>
<path d="M1765.6 542.385L1859.41 562.879L1798.06 657.058L1704.36 636.594L1765.6 542.385Z" fill="#031019"/>
<path d="M2137.13 624.051L2230.93 644.545L2169.58 738.724L2075.89 718.26L2137.13 624.051Z" fill="#031019"/>
<path d="M-285.128 91.6091L-191.324 112.103L-252.674 206.282L-346.371 185.819L-285.128 91.6091Z" fill="#031019"/>
<path d="M275.308 214.8L369.112 235.294L307.761 329.473L214.065 309.009L275.308 214.8Z" fill="#031019"/>
<path d="M833.644 337.529L927.448 358.023L866.098 452.202L772.401 431.738L833.644 337.529Z" fill="#031019"/>
<path d="M1391.98 460.258L1485.79 480.752L1424.43 574.931L1330.74 554.467L1391.98 460.258Z" fill="#031019"/>
<path d="M1952.42 583.448L2046.22 603.943L1984.87 698.121L1891.17 677.658L1952.42 583.448Z" fill="#031019"/>
<path d="M2323.94 665.114L2417.75 685.608L2356.4 779.787L2262.7 759.324L2323.94 665.114Z" fill="#031019"/>
</svg>
