<svg width="100%" height="70" viewBox="0 0 100% 70" fill="none" xmlns="http://www.w3.org/2000/svg">
<rect width="2920" height="98" transform="matrix(-0.96993 0.0118211 0.0118211 0.99993 2461.99 0)" fill="#23A1B4"/>
<path d="M2425.15 0.549112L2335.8 1.49179L2373.9 98.9057L2463.15 97.9708L2425.15 0.549112Z" fill="#051922"/>
<path d="M1891.19 6.86158L1801.84 7.80426L1839.94 105.218L1929.18 104.283L1891.19 6.86158Z" fill="#051922"/>
<path d="M1359.23 13.1504L1269.88 14.0931L1307.98 111.507L1397.22 110.572L1359.23 13.1504Z" fill="#051922"/>
<path d="M827.263 19.4392L737.913 20.3819L776.014 117.796L865.259 116.861L827.263 19.4392Z" fill="#051922"/>
<path d="M293.3 25.7517L203.95 26.6944L242.051 124.108L331.296 123.173L293.3 25.7517Z" fill="#051922"/>
<path d="M2247.16 2.65327L2157.81 3.59594L2195.91 101.01L2285.16 100.075L2247.16 2.65327Z" fill="#051922"/>
<path d="M1713.2 8.96574L1623.85 9.90841L1661.95 107.322L1751.2 106.387L1713.2 8.96574Z" fill="#051922"/>
<path d="M1181.24 15.2546L1091.89 16.1972L1129.99 113.611L1219.23 112.676L1181.24 15.2546Z" fill="#051922"/>
<path d="M649.275 21.5434L559.925 22.4861L598.026 119.9L687.272 118.965L649.275 21.5434Z" fill="#051922"/>
<path d="M115.312 27.8559L25.9627 28.7985L64.0632 126.212L153.309 125.278L115.312 27.8559Z" fill="#051922"/>
<path d="M-238.663 32.0405L-328.013 32.9832L-289.912 130.397L-200.666 129.462L-238.663 32.0405Z" fill="#051922"/>
<path d="M2069.18 4.75743L1979.83 5.7001L2017.93 103.114L2107.17 102.179L2069.18 4.75743Z" fill="#051922"/>
<path d="M1535.21 11.0699L1445.86 12.0126L1483.96 109.427L1573.21 108.492L1535.21 11.0699Z" fill="#051922"/>
<path d="M1003.25 17.3587L913.901 18.3014L952.001 115.715L1041.25 114.78L1003.25 17.3587Z" fill="#051922"/>
<path d="M471.288 23.6475L381.938 24.5902L420.038 122.004L509.284 121.069L471.288 23.6475Z" fill="#051922"/>
<path d="M-62.6753 29.96L-152.025 30.9027L-113.924 128.317L-24.6787 127.382L-62.6753 29.96Z" fill="#051922"/>
<path d="M-416.651 34.1447L-506 35.0874L-467.9 132.501L-378.654 131.566L-416.651 34.1447Z" fill="#051922"/>
</svg>
